<?xml version="1.0" encoding="UTF-8" standalone="no"?>
<svg
   xmlns:dc="http://purl.org/dc/elements/1.1/"
   xmlns:cc="http://creativecommons.org/ns#"
   xmlns:rdf="http://www.w3.org/1999/02/22-rdf-syntax-ns#"
   xmlns:svg="http://www.w3.org/2000/svg"
   xmlns="http://www.w3.org/2000/svg"
   xmlns:sodipodi="http://sodipodi.sourceforge.net/DTD/sodipodi-0.dtd"
   xmlns:inkscape="http://www.inkscape.org/namespaces/inkscape"
   width="1920"
   height="1500.1035"
   viewBox="0 0 123.34925 96.386067"
   version="1.1"
   id="svg8"
   sodipodi:docname="logo.svg"
   inkscape:version="0.92.3 (2405546, 2018-03-11)"
   inkscape:export-filename="C:\Users\Sameer\Desktop\Programmer\Projects\albatraders\src\assets\media\logo-head.png"
   inkscape:export-xdpi="96"
   inkscape:export-ydpi="96">
  <metadata
     id="metadata14">
    <rdf:RDF>
      <cc:Work
         rdf:about="">
        <dc:format>image/svg+xml</dc:format>
        <dc:type
           rdf:resource="http://purl.org/dc/dcmitype/StillImage" />
        <dc:title></dc:title>
      </cc:Work>
    </rdf:RDF>
  </metadata>
  <defs
     id="defs12" />
  <sodipodi:namedview
     pagecolor="#ffffff"
     bordercolor="#666666"
     borderopacity="1"
     objecttolerance="10"
     gridtolerance="10"
     guidetolerance="10"
     inkscape:pageopacity="0"
     inkscape:pageshadow="2"
     inkscape:window-width="1280"
     inkscape:window-height="961"
     id="namedview10"
     showgrid="false"
     inkscape:zoom="0.12083973"
     inkscape:cx="197.44921"
     inkscape:cy="-70.686852"
     inkscape:window-x="-8"
     inkscape:window-y="-8"
     inkscape:window-maximized="1"
     inkscape:current-layer="svg8"
     fit-margin-top="0"
     fit-margin-left="0"
     fit-margin-right="0"
     fit-margin-bottom="0" />
  <path
     style="clip-rule:evenodd;fill:#046380;fill-opacity:1;fill-rule:evenodd;stroke-width:0.76810217"
     inkscape:connector-curvature="0"
     id="path2"
     d="M 15.493462,69.083874 61.217046,0 74.208726,19.675704 47.100097,61.901351 87.764192,61.838367 76.39628,45.410966 l -7.370708,12.992448 -15.991118,0.31185 23.549243,-36.29129 30.356163,46.6599 z" />
  <path
     style="clip-rule:evenodd;fill:#000000;fill-opacity:1;fill-rule:evenodd;stroke-width:0.76810217"
     inkscape:connector-curvature="0"
     id="path4"
     d="m 68.938777,86.615805 h 14.815922 c 1.045387,0 2.737516,1.42867 2.737516,3.28057 0,1.83269 -1.692129,3.26136 -2.737516,3.26136 H 68.938777 Z m -5.174704,-12.68213 v -0.26193 H 86.87473 c 3.421895,0 4.548701,3.62314 4.548701,5.63634 0,3.30207 -2.374972,4.36896 -4.127013,5.49577 3.885829,1.99322 4.067101,4.30751 4.067101,5.83757 0,2.0132 -1.066894,5.43509 -4.488789,5.43509 H 63.764073 Z m 5.174704,2.81816 h 14.815922 c 1.045387,0 2.737516,1.3895 2.737516,3.20068 0,1.75128 -1.692129,3.14077 -2.737516,3.14077 H 68.938777 Z m -5.174704,19.5267 v -22.34486 z m -24.25897,-3.07241 h 16.989651 v 3.17994 l -22.062966,-0.12059 v -22.043 h 5.073315 z m -18.902226,-3.10621 -5.918995,-9.2395 -5.9381978,9.17882 z m 2.013196,3.12003 H 6.8738193 l -2.0738758,2.91879 -4.81062374,-0.06068 14.69533024,-22.88791 14.67536,22.88791 h -4.931984 z m 92.001737,-3.12003 -5.91823,-9.2395 -5.93743,9.17882 z m 1.99399,3.12003 h -15.72228 l -2.073106,2.91879 -4.791421,-0.0607 14.674587,-22.88791 14.65539,22.88791 h -4.93121 z" />
</svg>
